<?xml version="1.0"?>
<VTKFile type="UnstructuredGrid" version="0.1" byte_order="LittleEndian">
  <UnstructuredGrid>
    <Piece NumberOfPoints="121" NumberOfCells="0">
      <Points>
        <DataArray type="Float32" NumberOfComponents="3" format="ascii">
          -5 -5 0
          -5 -4 0
          -5 -3 0
          -5 -2 0
          -5 -1 0
          -5 0 0
          -5 1 0
          -5 2 0
          -5 3 0
          -5 4 0
          -5 5 0
          -4 -5 0
          -4 -4 0
          -4 -3 0
          -4 -2 0
          -4 -1 0
          -4 0 0
          -4 1 0
          -4 2 0
          -4 3 0
          -4 4 0
          -4 5 0
          -3 -5 0
          -3 -4 0
          -3 -3 0
          -3 -2 0
          -3 -1 0
          -3 0 0
          -3 1 0
          -3 2 0
          -3 3 0
          -3 4 0
          -3 5 0
          -2 -5 0
          -2 -4 0
          -2 -3 0
          -2 -2 0
          -2 -1 0
          -2 0 0
          -2 1 0
          -2 2 0
          -2 3 0
          -2 4 0
          -2 5 0
          -1 -5 0
          -1 -4 0
          -1 -3 0
          -1 -2 0
          -1 -1 0
          -1 0 0
          -1 1 0
          -1 2 0
          -1 3 0
          -1 4 0
          -1 5 0
          0 -5 0
          0 -4 0
          0 -3 0
          0 -2 0
          0 -1 0
          0 0 0
          0 1 0
          0 2 0
          0 3 0
          0 4 0
          0 5 0
          1 -5 0
          1 -4 0
          1 -3 0
          1 -2 0
          1 -1 0
          1 0 0
          1 1 0
          1 2 0
          1 3 0
          1 4 0
          1 5 0
          2 -5 0
          2 -4 0
          2 -3 0
          2 -2 0
          2 -1 0
          2 0 0
          2 1 0
          2 2 0
          2 3 0
          2 4 0
          2 5 0
          3 -5 0
          3 -4 0
          3 -3 0
          3 -2 0
          3 -1 0
          3 0 0
          3 1 0
          3 2 0
          3 3 0
          3 4 0
          3 5 0
          4 -5 0
          4 -4 0
          4 -3 0
          4 -2 0
          4 -1 0
          4 0 0
          4 1 0
          4 2 0
          4 3 0
          4 4 0
          4 5 0
          5 -5 0
          5 -4 0
          5 -3 0
          5 -2 0
          5 -1 0
          5 0 0
          5 1 0
          5 2 0
          5 3 0
          5 4 0
          5 5 0
        </DataArray>
      </Points>
      <Cells>
        <DataArray type="Int32" Name="connectivity" format="ascii"/>
        <DataArray type="Int32" Name="offsets" format="ascii"/>
        <DataArray type="UInt8" Name="types" format="ascii"/>
      </Cells>
      <PointData Vectors="B">
        <DataArray type="Float32" Name="B" NumberOfComponents="3" format="ascii">
          2.1078979487379565E+17 -40159276401698240 1.7063051847209715E+17
          2.1078979487379565E+17 232 1.7063051847209715E+17
          2.1078979487379565E+17 40159276401698700 1.7063051847209715E+17
          33748770587199650 34099768178219652 1.701478433000788E+17
          33748770587199650 -1.022993014859026E+17 1.701478433000788E+17
          -1.422898495287696E+17 -15215122523023032 -1.118596044827237E+17
          -54615719850458130 -15290795494834160 -1.1577889727278294E+17
          -54615719850458130 45872383066743550 -1.1577889727278294E+17
          -45132225563562030 37154236956575690 4406757045205608
          -45132225563562030 -12384746574927400 4406757045205608
          -45132225563562030 -61923727338224160 4406757045205608
          40 -40159276401698240 1.7063051847209715E+17
          40 232 1.7063051847209715E+17
          40 40159276401698700 1.7063051847209715E+17
          -160 34099768178219652 1.701478433000788E+17
          -160 -1.022993014859026E+17 1.701478433000788E+17
          -56 -15215122523023032 -1.118596044827237E+17
          -8 -15290795494834160 -1.1577889727278294E+17
          -8 45872383066743550 -1.1577889727278294E+17
          -52 37154236956575690 4406757045205608
          -52 -12384746574927400 4406757045205608
          -52 -61923727338224160 4406757045205608
          -2.107897948737956E+17 -40159276401698240 1.7063051847209715E+17
          -2.107897948737956E+17 232 1.7063051847209715E+17
          -2.107897948737956E+17 40159276401698700 1.7063051847209715E+17
          -33748770587199950 34099768178219652 1.701478433000788E+17
          -33748770587199950 -1.022993014859026E+17 1.701478433000788E+17
          1.422898495287695E+17 -15215122523023032 -1.118596044827237E+17
          54615719850458100 -15290795494834160 -1.1577889727278294E+17
          54615719850458100 45872383066743550 -1.1577889727278294E+17
          45132225563561940 37154236956575690 4406757045205608
          45132225563561940 -12384746574927400 4406757045205608
          45132225563561940 -61923727338224160 4406757045205608
          5562991669252826 -67390819159228616 -45138852482217030
          5562991669252826 84 -45138852482217030
          5562991669252826 67390819159228776 -45138852482217030
          71000406930784620 -56473540878859464 58107507230320860
          71000406930784620 1.694206101143855E+17 58107507230320860
          -1.0863232555931408E+17 -2.22481734009603E+17 10434165781950928
          40291190973423810 -4858790132194140 1.4172959054415243E+17
          40291190973423810 14576380025580018 1.4172959054415243E+17
          -12496120334711916 -11902366447535486 -65854303756222010
          -12496120334711916 3967458372383664 -65854303756222010
          -12496120334711916 19837277491980510 -65854303756222010
          -16688974510388720 -67390819159228616 -45138852482217030
          -16688974510388720 84 -45138852482217030
          -16688974510388720 67390819159228776 -45138852482217030
          -2.130012392383218E+17 -56473540878859464 58107507230320860
          -2.130012392383218E+17 1.694206101143855E+17 58107507230320860
          3.2589696696545517E+17 -2.22481734009603E+17 10434165781950928
          -1.2087356937560176E+17 -4858790132194140 1.4172959054415243E+17
          -1.2087356937560176E+17 14576380025580018 1.4172959054415243E+17
          37488360027378610 -11902366447535486 -65854303756222010
          37488360027378610 3967458372383664 -65854303756222010
          37488360027378610 19837277491980510 -65854303756222010
          -14240712562360664 1.4558105981170592E+17 1.7406248493642714E+17
          -14240712562360664 8 1.7406248493642714E+17
          -14240712562360664 -1.455810598117059E+17 1.7406248493642714E+17
          -1.804941617378148E+17 -1.2450798310052451E+17 -1.3704360892646934E+17
          -1.804941617378148E+17 3.735239381696937E+17 -1.3704360892646934E+17
          2.8434004727142192E+17 -6.117371809563918E+17 6.547942673699396E+17
          16533469930818076 19984311514206388 46870300239401190
          16533469930818076 -59952930075778280 46870300239401190
          74969463724094740 1.840584314049891E+17 95472314425129580
          74969463724094740 -61352815039470220 95472314425129580
          74969463724094740 -3.0676404777050797E+17 95472314425129580
          -5306967270540276 -31473867905540630 -52701735406102420
          -5306967270540276 -124 -52701735406102420
          -5306967270540276 31473867905540384 -52701735406102420
          44728982464565150 -49733329414792424 -20017361784606096
          44728982464565150 1.4919998012499008E+17 -20017361784606096
          -75720921709685310 -1.5808706721786106E+17 13290470163571536
          29974397015989068 2221753832344816 1.287846059981551E+17
          29974397015989068 -6665262357877120 1.287846059981551E+17
          -2881013707773320 2.0594540332940176E+17 2.63069816576063E+17
          -2881013707773320 -68648469565784820 2.63069816576063E+17
          -2881013707773320 -3.4324233480581235E+17 2.63069816576063E+17
          15920900625421432 -31473867905540630 -52701735406102420
          15920900625421432 -124 -52701735406102420
          15920900625421432 31473867905540384 -52701735406102420
          -1.3418696426981917E+17 -49733329414792424 -20017361784606096
          -1.3418696426981917E+17 1.4919998012499008E+17 -20017361784606096
          2.2716274820411254E+17 -1.5808706721786106E+17 13290470163571536
          -89923194512965340 2221753832344816 1.287846059981551E+17
          -89923194512965340 -6665262357877120 1.287846059981551E+17
          8643038419306728 2.0594540332940176E+17 2.63069816576063E+17
          8643038419306728 -68648469565784820 2.63069816576063E+17
          8643038419306728 -3.4324233480581235E+17 2.63069816576063E+17
          12693491198361556 -94869624897784850 -77944969966635980
          12693491198361556 -80 -77944969966635980
          12693491198361556 94869624897784700 -77944969966635980
          12131263487117812 3040137970293124 28335571705348016
          12131263487117812 -9120414963533948 28335571705348016
          3343961928752880 1.7339089709808582E+17 -3.423231782911681E+17
          27047726225401550 -45293268938726180 -1.4510944996975866E+17
          27047726225401550 1.3587981536058944E+17 -1.4510944996975866E+17
          15083107349858984 -293494560097360 19719490243655920
          15083107349858984 97831625151184 19719490243655920
          15083107349858984 489157788532640 19719490243655920
          -4231164048033432 -94869624897784850 -77944969966635980
          -4231164048033432 -80 -77944969966635980
          -4231164048033432 94869624897784700 -77944969966635980
          -4043752288537668 3040137970293124 28335571705348016
          -4043752288537668 -9120414963533948 28335571705348016
          -1114654059299168 1.7339089709808582E+17 -3.423231782911681E+17
          -9015905874958048 -45293268938726180 -1.4510944996975866E+17
          -9015905874958048 1.3587981536058944E+17 -1.4510944996975866E+17
          -5027710844343912 -293494560097360 19719490243655920
          -5027710844343912 97831625151184 19719490243655920
          -5027710844343912 489157788532640 19719490243655920
          -21155818348689656 -94869624897784850 -77944969966635980
          -21155818348689656 -80 -77944969966635980
          -21155818348689656 94869624897784700 -77944969966635980
          -20218772271495976 3040137970293124 28335571705348016
          -20218772271495976 -9120414963533948 28335571705348016
          -5573269798206656 1.7339089709808582E+17 -3.423231782911681E+17
          -45079549166115080 -45293268938726180 -1.4510944996975866E+17
          -45079549166115080 1.3587981536058944E+17 -1.4510944996975866E+17
          -25138520225798370 -293494560097360 19719490243655920
          -25138520225798370 97831625151184 19719490243655920
          -25138520225798370 489157788532640 19719490243655920
        </DataArray>
      </PointData>
    </Piece>
  </UnstructuredGrid>
</VTKFile>
